<svg width="56" height="76" viewBox="0 0 56 76" fill="none" xmlns="http://www.w3.org/2000/svg">
<path d="M54.9 0.807248L35.1233 28.7076" stroke="white"/>
<line y1="-0.5" x2="34.1987" y2="-0.5" transform="matrix(-0.578289 0.815832 -0.878614 -0.477532 20.7167 46.7804)" stroke="white"/>
<line y1="-0.5" x2="20.5193" y2="-0.5" transform="matrix(-0.578327 -0.815805 0.878594 -0.477569 19.3522 26.7417)" stroke="white"/>
<line y1="-0.5" x2="13.6796" y2="-0.5" transform="matrix(-0.578327 -0.815805 0.878594 -0.477569 20.9113 21.1598)" stroke="white"/>
<line y1="-0.5" x2="13.6796" y2="-0.5" transform="matrix(-0.578327 -0.815805 0.878594 -0.477569 39.9113 61.1599)" stroke="white"/>
<line y1="-0.5" x2="20.5193" y2="-0.5" transform="matrix(-0.578327 -0.815805 0.878594 -0.477569 46.3531 62.2067)" stroke="white"/>
<path d="M35.0558 29.4839C33.5696 27.973 31.6354 26.8881 29.4875 26.3605C27.3396 25.8329 25.0702 25.8854 22.9544 26.5115C20.8385 27.1377 18.9668 28.3106 17.5663 29.8883C16.1657 31.4659 15.2962 33.3805 15.0633 35.4002C14.8303 37.4199 15.2438 39.4579 16.2537 41.2673C17.2635 43.0768 18.8264 44.58 20.753 45.5949C22.6796 46.6097 24.8872 47.0927 27.1084 46.9853C29.3295 46.8779 31.4688 46.1846 33.2672 44.9896L32.8367 44.4495C31.1527 45.5685 29.1495 46.2176 27.0696 46.3182C24.9898 46.4188 22.9227 45.9665 21.1187 45.0162C19.3146 44.0659 17.8512 42.6583 16.9055 40.964C15.9599 39.2697 15.5727 37.3613 15.7909 35.4702C16.009 33.579 16.8232 31.7862 18.1346 30.3089C19.4461 28.8316 21.1987 27.7333 23.1799 27.147C25.1612 26.5607 27.2862 26.5116 29.2974 27.0056C31.3086 27.4996 33.1198 28.5155 34.5115 29.9303L35.0558 29.4839Z" fill="#D9D9D9"/>
</svg>
