<svg width="25" height="25" viewBox="0 0 25 25" fill="none" xmlns="http://www.w3.org/2000/svg">
<g clip-path="url(#clip0_1_437)">
<path d="M11.7434 0.280409C11.6906 0.285208 11.5226 0.302002 11.3715 0.313998C7.88493 0.628293 4.61914 2.50926 2.55073 5.40029C1.39895 7.00775 0.662286 8.83114 0.383939 10.7625C0.285557 11.4367 0.27356 11.6358 0.27356 12.5499C0.27356 13.464 0.285557 13.6631 0.383939 14.3373C1.05101 18.9462 4.3312 22.8185 8.77996 24.2532C9.57661 24.5099 10.4165 24.685 11.3715 24.7906C11.7434 24.8314 13.3511 24.8314 13.723 24.7906C15.3715 24.6083 16.7681 24.2004 18.1454 23.4974C18.3566 23.3895 18.3973 23.3607 18.3686 23.3367C18.3494 23.3223 17.4495 22.1155 16.3697 20.6568L14.4069 18.0057L11.9474 14.3661C10.594 12.3652 9.48063 10.7289 9.47103 10.7289C9.46143 10.7265 9.45183 12.3436 9.44703 14.3181C9.43983 17.7753 9.43744 17.9145 9.39424 17.9961C9.33185 18.1136 9.28386 18.1616 9.18308 18.2144C9.1063 18.2528 9.03911 18.26 8.67678 18.26H8.26166L8.15128 18.1904C8.07929 18.1448 8.0265 18.0848 7.99051 18.0153L7.94012 17.9073L7.94492 13.0969L7.95211 8.28413L8.0265 8.19056C8.06489 8.14018 8.14648 8.0754 8.20407 8.04421C8.30245 7.99622 8.34084 7.99143 8.75596 7.99143C9.24547 7.99143 9.32706 8.01062 9.45423 8.14977C9.49022 8.18816 10.822 10.1939 12.4153 12.6099C14.0086 15.0259 16.1874 18.3248 17.2576 19.9442L19.2012 22.888L19.2996 22.8233C20.1706 22.257 21.092 21.4509 21.8215 20.6112C23.374 18.8286 24.3746 16.6549 24.7106 14.3373C24.8089 13.6631 24.8209 13.464 24.8209 12.5499C24.8209 11.6358 24.8089 11.4367 24.7106 10.7625C24.0435 6.15364 20.7633 2.28134 16.3145 0.84662C15.5299 0.592305 14.6948 0.417164 13.759 0.311599C13.5287 0.287607 11.9426 0.261216 11.7434 0.280409ZM16.7681 7.70352C16.8832 7.7611 16.9768 7.87147 17.0104 7.98663C17.0296 8.04901 17.0344 9.38296 17.0296 12.3892L17.0224 16.7029L16.2618 15.5369L15.4987 14.3709V11.2351C15.4987 9.20782 15.5083 8.0682 15.5227 8.01302C15.5611 7.87866 15.6451 7.7731 15.7602 7.71072C15.8586 7.66034 15.8946 7.65554 16.2713 7.65554C16.6265 7.65554 16.6889 7.66034 16.7681 7.70352Z" fill="white"/>
</g>
<defs>
<clipPath id="clip0_1_437">
<rect width="24.5474" height="24.5474" fill="white" transform="translate(0.27356 0.273804)"/>
</clipPath>
</defs>
</svg>
