<svg width="29" height="25" viewBox="0 0 29 25" fill="none" xmlns="http://www.w3.org/2000/svg">
<path fill-rule="evenodd" clip-rule="evenodd" d="M14.6074 4.55121C11.0775 4.55121 8.87186 6.32723 7.98899 9.87928C9.31278 8.10326 10.857 7.43738 12.6217 7.88112C13.6286 8.13424 14.3486 8.86943 15.1448 9.6834C16.4427 11.0089 17.9449 12.5428 21.2253 12.5428C24.7547 12.5428 26.9609 10.7668 27.8432 7.21524C26.5199 8.99127 24.9757 9.65715 23.211 9.21288C22.2036 8.95976 21.4836 8.22456 20.6874 7.41112C19.3895 6.08462 17.8878 4.55121 14.6074 4.55121ZM7.98899 12.5428C4.45958 12.5428 2.25345 14.3188 1.37109 17.8709C2.69488 16.0948 4.23913 15.429 6.00331 15.8727C7.01068 16.1258 7.73067 16.861 8.52691 17.675C9.82476 19.0004 11.3265 20.5344 14.6074 20.5344C18.1368 20.5344 20.343 18.7589 21.2253 15.2068C19.9015 16.9828 18.3573 17.6487 16.5926 17.205C15.5857 16.9513 14.8657 16.2161 14.0695 15.4027C12.7716 14.0772 11.2694 12.5428 7.98899 12.5428Z" fill="#38BDF8"/>
</svg>
