<svg width="25" height="25" viewBox="0 0 25 25" fill="none" xmlns="http://www.w3.org/2000/svg">
<g clip-path="url(#clip0_1_446)">
<path d="M21.1391 0.273804H3.95591C1.92234 0.273804 0.273804 1.92234 0.273804 3.95591V21.1391C0.273804 23.1726 1.92234 24.8212 3.95591 24.8212H21.1391C23.1726 24.8212 24.8212 23.1726 24.8212 21.1391V3.95591C24.8212 1.92234 23.1726 0.273804 21.1391 0.273804Z" fill="#3178C6"/>
<path d="M11.4448 13.8901H14.5133V11.9243H5.93127V13.8901H8.9997V22.6638H11.4448V13.8901ZM15.4721 22.1844C15.8605 22.3857 16.3351 22.5344 16.8625 22.6351C17.3899 22.7357 17.9652 22.7837 18.5406 22.7837C19.1159 22.7837 19.6433 22.7309 20.1707 22.6207C20.6981 22.5104 21.1296 22.3282 21.5131 22.0933C21.9015 21.8392 22.2323 21.518 22.424 21.0865C22.6158 20.655 22.7644 20.1755 22.7644 19.5523C22.7644 19.116 22.6973 18.7372 22.5679 18.4016C22.4384 18.066 22.2514 17.7783 21.9925 17.5386C21.748 17.2845 21.4652 17.0592 21.1296 16.8674C20.7939 16.6756 20.4104 16.4742 19.9789 16.2921C19.6625 16.1626 19.4036 16.0379 19.1159 15.9133C18.8666 15.7886 18.6508 15.664 18.4926 15.5393C18.3152 15.4099 18.181 15.2756 18.0851 15.1366C17.9892 14.9928 17.9413 14.8346 17.9413 14.6572C17.9413 14.4941 17.9839 14.3455 18.0707 14.2113C18.1575 14.077 18.2769 13.9668 18.4303 13.8709C18.5837 13.775 18.7755 13.7031 19.0056 13.6503C19.231 13.5976 19.4803 13.5736 19.7727 13.5736C19.9741 13.5736 20.1851 13.5885 20.396 13.6187C20.6166 13.6489 20.8419 13.6954 21.0672 13.7577C21.2926 13.8201 21.5131 13.8968 21.7384 13.9927C21.9494 14.0885 22.146 14.1988 22.3138 14.3235V12.0701C21.9494 11.9311 21.5467 11.8256 21.1152 11.7585C20.6837 11.6913 20.2042 11.6578 19.6289 11.6578C19.0536 11.6578 18.5262 11.7201 17.9988 11.84C17.4714 11.9598 17.0399 12.1516 16.6564 12.4153C16.268 12.6742 15.9852 12.9906 15.7454 13.4221C15.5201 13.8248 15.4098 14.2851 15.4098 14.8604C15.4098 15.5796 15.616 16.2029 16.0331 16.6823C16.4454 17.2097 17.0879 17.5933 17.9029 17.9768C18.2337 18.1111 18.5262 18.2453 18.8139 18.3747C19.1015 18.5042 19.3412 18.6384 19.533 18.7775C19.7392 18.9165 19.9022 19.0699 20.0125 19.2329C20.1323 19.396 20.1946 19.5877 20.1946 19.8083C20.1946 19.9617 20.1572 20.1055 20.0844 20.2398C20.0115 20.374 19.8974 20.4891 19.744 20.585C19.5905 20.6809 19.4036 20.7576 19.1686 20.8151C18.9433 20.8678 18.6892 20.8966 18.3536 20.8966C17.8262 20.8966 17.2988 20.8055 16.8194 20.6233C16.292 20.4411 15.8126 20.1679 15.4721 19.8831V22.1844Z" fill="white"/>
</g>
<defs>
<clipPath id="clip0_1_446">
<rect width="24.5474" height="24.5474" fill="white" transform="translate(0.273804 0.273804)"/>
</clipPath>
</defs>
</svg>
